<svg class="icon" viewBox="0 0 1024 1024" xmlns="http://www.w3.org/2000/svg" width="200" height="200"><path d="M993.012 30.96C962.872.836 918.289-8.096 876.725 7.74L77.126 311.152C29.88 328.985-.384 372.717.004 422.455c.371 45.667 26.95 83.593 69.382 98.903l299.341 108.176a42.215 42.215 0 0125.744 25.76l108.176 299.324c15.34 42.431 53.236 69.026 98.918 69.382h.96c49.335 0 92.618-30.17 110.42-77.122l303.412-799.583c15.763-41.581 6.893-86.133-23.345-116.335zM742.001 314.852L428.233 628.605a23.22 23.22 0 11-32.834-32.834l313.753-313.753a23.22 23.22 0 1132.849 32.834z"/></svg>