<svg t="1591151633493" class="icon" viewBox="0 0 1024 1024" version="1.1" xmlns="http://www.w3.org/2000/svg" p-id="1094" width="200" height="200"><path d="M 993.012 30.9604 C 962.872 0.835931 918.289 -8.09615 876.725 7.7401 L 77.126 311.152 C 29.8805 328.985 -0.383336 372.717 0.003669 422.455 c 0.371525 45.6666 26.951 83.5931 69.3823 98.903 l 299.341 108.176 a 42.2145 42.2145 0 0 1 25.7436 25.7591 l 108.176 299.325 c 15.3409 42.4312 53.2364 69.0262 98.9185 69.3823 h 0.959772 c 49.3354 0 92.6181 -30.1709 110.42 -77.1224 l 303.412 -799.583 C 1032.12 105.714 1023.25 61.1623 993.012 30.9604 Z M 742.001 314.852 L 428.233 628.605 a 23.2203 23.2203 0 1 1 -32.8335 -32.8335 L 709.152 282.018 a 23.2203 23.2203 0 1 1 32.849 32.8335 Z" fill="#ff0000" p-id="1095"></path></svg>